<svg xmlns="http://www.w3.org/2000/svg" xmlns:xlink="http://www.w3.org/1999/xlink" width="40" zoomAndPan="magnify" viewBox="0 0 30 30.000001" height="40" preserveAspectRatio="xMidYMid meet" version="1.0"><defs><g/><clipPath id="8a6fbb2ac2"><path d="M 0.484375 0 L 29.515625 0 L 29.515625 29.03125 L 0.484375 29.03125 Z M 0.484375 0 " clip-rule="nonzero"/></clipPath><clipPath id="b0b132b898"><path d="M 15 0 C 6.984375 0 0.484375 6.5 0.484375 14.515625 C 0.484375 22.53125 6.984375 29.03125 15 29.03125 C 23.015625 29.03125 29.515625 22.53125 29.515625 14.515625 C 29.515625 6.5 23.015625 0 15 0 " clip-rule="nonzero"/></clipPath></defs><g clip-path="url(#8a6fbb2ac2)"><g clip-path="url(#b0b132b898)"><path fill="#000000" d="M 0.484375 0 L 29.515625 0 L 29.515625 29.03125 L 0.484375 29.03125 Z M 0.484375 0 " fill-opacity="1" fill-rule="nonzero"/></g></g><g fill="#f9fcf3" fill-opacity="1"><g transform="translate(4.462759, 22.812303)"><g><path d="M 1.828125 0 L 1.828125 -15.578125 L 7.1875 -15.578125 L 7.1875 -13.9375 L 7.25 -13.9375 C 8.644531 -15.332031 10.132812 -16.03125 11.71875 -16.03125 C 12.488281 -16.03125 13.253906 -15.925781 14.015625 -15.71875 C 14.773438 -15.519531 15.503906 -15.207031 16.203125 -14.78125 C 16.898438 -14.351562 17.460938 -13.75 17.890625 -12.96875 C 18.328125 -12.195312 18.546875 -11.296875 18.546875 -10.265625 L 18.546875 0 L 13.171875 0 L 13.171875 -8.796875 C 13.171875 -9.609375 12.910156 -10.316406 12.390625 -10.921875 C 11.878906 -11.535156 11.210938 -11.84375 10.390625 -11.84375 C 9.578125 -11.84375 8.835938 -11.523438 8.171875 -10.890625 C 7.515625 -10.265625 7.1875 -9.566406 7.1875 -8.796875 L 7.1875 0 Z M 1.828125 0 "/></g></g></g></svg>